<?xml version="1.0" encoding="UTF-8" standalone="yes"?>
<svg width="129" height="87" color-interpolation="linearRGB">
 <g>
  <path style="fill:#000000; fill-opacity:0.2; fill-rule:evenodd"
        d="M12.71 41.84c0 -23.04 25.56 -41.72 57.12 -41.72c31.54 0 57.11 18.67 57.11 41.72c0 23.05 -25.56 41.73 -57.11 41.73c-31.55 0 -57.12 -18.68 -57.12 -41.73z
           M69.83 51.4c7.22 0 13.08 -4.27 13.08 -9.56c0 -5.27 -5.84 -9.55 -13.08 -9.55c-7.21 0 -13.07 4.27 -13.07 9.55c0 5.28 5.86 9.56 13.07 9.56z"
  />
  <path style="fill:#000000; fill-rule:evenodd"
        d="M0.31 45.63c0 21.88 26.09 39.7 58.15 39.7c32.05 0 58.15 -17.8 58.15 -39.7c0 -21.88 -26.08 -39.7 -58.15 -39.7c-32.06 0 -58.15 17.8 -58.15 39.7z
           M6.69 45.63c0 -18.42 23.22 -33.4 51.77 -33.4c28.54 0 51.76 14.97 51.76 33.4c0 18.41 -23.22 33.4 -51.76 33.4c-28.54 0 -51.77 -14.98 -51.77 -33.4z"
  />
  <linearGradient id="gradient0" gradientUnits="userSpaceOnUse" x1="35.08" y1="-13.96" x2="123.33" y2="42.82">
   <stop offset="0" stop-color="#720303"/>
   <stop offset="0.2105" stop-color="#8a2e2e"/>
   <stop offset="0.5263" stop-color="#e1caca"/>
   <stop offset="0.5991" stop-color="#bf8c8c"/>
   <stop offset="0.757" stop-color="#720303"/>
   <stop offset="1" stop-color="#c19090"/>
  </linearGradient>
  <path style="fill:url(#gradient0); fill-rule:evenodd"
        d="M90.69 15.15c-24.76 -11.65 -59.28 -7.48 -77.11 9.3c-17.81 16.8 -12.18 39.87 12.56 51.54c24.76 11.65 59.27 7.47 77.11 -9.31c17.81 -16.79 12.18 -39.87 -12.56 -51.53z
           M68.91 35.7c-8.02 -3.77 -19.22 -2.4 -25.01 3.04c-5.79 5.45 -3.98 12.94 4.03 16.71c8.02 3.77 19.22 2.4 25 -3.04c5.79 -5.45 3.98 -12.94 -4.03 -16.71z"
  />
  <linearGradient id="gradient1" gradientUnits="userSpaceOnUse" x1="35.08" y1="-13.96" x2="123.33" y2="42.82">
   <stop offset="0" stop-color="#ff3b06"/>
   <stop offset="0.2105" stop-color="#ff3b06"/>
   <stop offset="0.5263" stop-color="#f6d3ba"/>
   <stop offset="0.5991" stop-color="#ffaa6c"/>
   <stop offset="0.757" stop-color="#ff3b06"/>
   <stop offset="1" stop-color="#c19090"/>
  </linearGradient>
  <path style="fill:url(#gradient1)"
        d="M28.94 31.62l8.28 2.48l5.79 -1.75l-0.92 -1.59l7.7 2.56l10.54 -0.36c0 0 -3.27 -4.2 -4.39 -5.63c-1.11 -1.42 -3.86 -5.06 -3.86 -5.06l-8.92 3.35l2.42 3.61l-9.06 -5.03l0.73 6.05l-2.19 -0.53l-6.13 1.88l0.01 0.01z
           M66.38 18.17c-4.54 -1.29 -9.88 0.12 -11.91 3.2c-2.02 3.07 0.02 6.63 4.57 7.93c4.54 1.3 9.89 -0.12 11.92 -3.2c2.01 -3.06 -0.02 -6.63 -4.58 -7.93z
           M69.26 31.04l0.86 -0.34c0 0 -0.93 1.75 -1.6 3.29l7.77 5.75c0 0 6.66 -4.09 8.31 -5.1c1.63 -1 7.87 -5.37 7.87 -5.37c0 0 -0.98 -1.94 -1.4 -2.94c-0.41 -0.98 -1.99 -3.69 -1.99 -3.69c0 0 -4.96 2.84 -9.79 5.65c-4.12 2.39 -7.05 3.73 -7.05 3.73l5.2 -6.43l-4.97 -1c0 0 -1.25 1.26 -2.83 2.53c-1.76 1.42 -3.86 2.88 -3.86 2.88l3.5 1.05l-0.01 -0.02z
           M76.65 38.5c-0.04 1.51 4.04 8.25 10.33 6.86c4.21 -0.93 8.48 -9.36 3.78 -12.55l-14.11 5.69z
           M102.34 43.95l-24.84 2.13c0 0 0.12 2.06 -0.38 4.02c-0.52 1.97 -1.19 3.81 -1.19 3.81l8.33 0.65c0 0 0.45 -0.84 1.44 -2.22c0.75 -1.05 1.34 -2.13 1.34 -2.13l1.66 -0.27l-0.5 1.57l3.2 -0.27l1.39 -1.65l2.31 -0.34c0 0 -0.42 0.75 -0.95 1.54c-0.65 0.95 -1.43 2 -1.43 2l2.15 -0.54c0 0 2.09 -2.29 3.69 -3.97c1.58 -1.68 3.73 -4.31 3.73 -4.31h0.02z
           M77.63 53.9l-1.69 1.86l1.75 0.75l-5.38 1.18l-2.47 3.63l3.81 0.38c0 0 -2.91 3.75 1.43 4.6c5.7 1.1 15.65 -5.89 19.48 -9.96c0 0 -4.19 -0.46 -8.23 -1.06c-4.05 -0.59 -8.66 -1.4 -8.66 -1.4l-0.02 0.01z
           M78.52 72.12c0 0 -2.44 -2.75 -5.15 -6.61c-2.72 -3.85 -4.15 -5.84 -4.15 -5.84c0 0 -6.12 -1.15 -8.42 -1.03c-3.02 0.14 -6.02 2.36 -4.86 3.38c1.24 1.09 4.45 1.68 4.45 1.68c0 0 -4.91 4.85 -3.22 8.92c1.43 3.48 14.1 3 21.39 -0.5h-0.02z
           M55.66 58.58l-0.48 1.41l-3.59 -2.95l-4.42 1.68l0.72 5.82c0 0 -2.41 1.77 -2.95 3.13c-1.76 4.47 12.22 0.29 12.22 0.29c0 0 -0.02 -1.57 0 -3.68c0.04 -2.09 0.09 -5.7 0.09 -5.7l-1.58 -0.02v0.01z
           M41.16 66.69c0 0 8.55 -3.39 6.51 -9.25c-0.95 -2.75 -4.63 -3.5 -6.75 -3.52c-6.02 -0.09 -21.2 10.06 -21.2 10.06c0 0 2.09 1.01 3.88 2.11c1.77 1.08 3.27 1.86 3.27 1.86c0 0 11.97 -5.41 13.18 -4.79c1.2 0.6 -1.2 2.4 -1.2 2.4l2.29 1.12l0 0.01z
           M18.8 56.06c0 0 0.56 1.15 0.61 1.7c0.03 0.54 0.14 1.39 0.14 1.39c0 0 7.21 2.49 9.63 1.6c2.4 -0.88 -0.98 -2.85 0.2 -3.65c1.2 -0.79 4.13 -1.04 4.13 -1.04c0 0 1.68 -2.4 3.29 -4.66c1.6 -2.25 3.25 -4.83 3.25 -4.83c0 0 -18.4 -0.72 -21.53 3.5c-1.67 2.27 6.86 7.59 6.01 8.11c-0.67 0.4 -5.78 -2.13 -5.78 -2.13l0.02 0.01z
           M42.41 37.81c0 0 -5.84 -0.81 -12.13 -2.07c-7.98 -1.59 -16.81 -3.69 -16.81 -3.69l-2.94 7.93c0 0 5.88 0.9 11.53 1.58c5 0.59 9.18 0.86 9.18 0.86l-0.84 1.09l-11.14 0.05l-1.64 3.83c0 0 5.09 -0.11 9.93 -0.1c4.12 0 8.1 0.14 8.1 0.14l2.5 -3.7l-5.24 -0.02l0.83 -1.11l3.77 -0.01c0 0 1.81 -1.84 2.43 -2.47c0.62 -0.63 2.45 -2.28 2.45 -2.28l0 -0.01z"
  />
  <path style="fill:#ffffff"
        d="M89.66 61.68c-0.18 0.12 -0.31 0.26 -0.43 0.4h-0.06c-0.65 -0.31 -1.2 -0.59 -1.62 -0.79c-0.44 -0.2 -0.98 -0.45 -1.59 -0.72l-0.02 -0.04l0.16 -0.15l1.15 -0.02c0.86 -0.02 1.45 -0.06 1.77 -0.13c0.19 -0.02 0.34 -0.07 0.46 -0.12c0.1 -0.05 0.2 -0.11 0.29 -0.19c0.3 -0.29 0.19 -0.55 -0.33 -0.8c-0.28 -0.13 -0.58 -0.19 -0.88 -0.16c-0.07 0.03 -0.22 0.1 -0.43 0.2h-0.04l-0.2 -0.09l-0 -0.02l0.77 -0.54c0.47 0 0.97 0.11 1.52 0.37c0.48 0.22 0.8 0.46 0.93 0.71c0.12 0.22 0.08 0.44 -0.12 0.63c-0.07 0.06 -0.16 0.14 -0.27 0.19c-0.22 0.09 -0.51 0.15 -0.9 0.18c-0.3 0.02 -0.76 0.02 -1.36 0.04c-0.2 0 -0.54 0 -0.98 0l-0.01 0.02l0.63 0.29c0.18 0.07 0.36 0.16 0.53 0.23l0.63 0.28c0.15 0.06 0.29 0.13 0.43 0.18l0.02 0.04l-0.05 0z
           M90.94 62.11c0.14 0.06 0.25 0.15 0.3 0.27c0.05 0.1 0.02 0.2 -0.05 0.27c-0.07 0.08 -0.2 0.12 -0.37 0.12c-0.16 0 -0.33 -0.03 -0.48 -0.1c-0.15 -0.06 -0.26 -0.15 -0.31 -0.27c-0.04 -0.1 -0.02 -0.19 0.04 -0.27c0.08 -0.07 0.2 -0.11 0.38 -0.11c0.16 0 0.32 0.02 0.48 0.09h0.01z
           M96.25 63.41c-0.5 0.47 -0.98 0.76 -1.44 0.84c-0.56 0.11 -1.13 0.03 -1.73 -0.23c-0.56 -0.27 -0.87 -0.56 -0.9 -0.91c-0.01 -0.27 0.19 -0.63 0.63 -1.06c0.35 -0.32 0.69 -0.55 1.02 -0.68c0.3 -0.11 0.64 -0.15 1.01 -0.13c0.34 0.02 0.7 0.11 1.05 0.27c0.54 0.25 0.84 0.52 0.91 0.8c0.06 0.29 -0.12 0.66 -0.58 1.1h0.01z
           M95.02 63.29c0.5 -0.47 0.8 -0.85 0.88 -1.12c0.05 -0.2 -0.03 -0.38 -0.3 -0.5c-0.23 -0.11 -0.48 -0.13 -0.73 -0.04c-0.25 0.07 -0.54 0.27 -0.88 0.61c-0.43 0.39 -0.7 0.73 -0.83 1c-0.06 0.11 -0.09 0.21 -0.08 0.28c0 0.15 0.11 0.29 0.31 0.38c0.34 0.16 0.69 0.12 1.05 -0.09c0.18 -0.12 0.38 -0.28 0.59 -0.47l-0.01 -0.02z"
  />
  <path style="fill:#ffffff"
        d="M23.4 28.31c-0.07 -0.01 -0.43 0.11 -0.85 0.25c0.02 -0.04 0.04 -0.11 0.06 -0.18c0.04 -0.06 0.07 -0.17 0.05 -0.19c-0.03 -0.03 -0.19 -0.07 -0.35 -0.1c-0.17 -0.02 -0.32 -0.04 -0.36 -0.02c-0.05 0.03 -0.05 0.23 -0.03 0.42c0.01 0.11 0.02 0.19 0.03 0.27c-0.39 0.1 -0.77 0.19 -0.81 0.23c-0.03 0.05 0.03 0.13 0.18 0.31c0.14 0.17 0.39 0.3 0.51 0.35c0.11 0.03 0.73 -0.13 1.15 -0.32c0.39 -0.17 0.97 -0.51 0.98 -0.55c0 -0.05 -0.05 -0.12 -0.19 -0.22c-0.12 -0.1 -0.29 -0.19 -0.39 -0.21l0.01 -0.02z
           M23.06 29.13c-0.52 0.31 -0.25 0.67 0.03 0.93c0.27 0.25 1.07 0.4 1.2 0.42c0.09 0 0.23 -0.01 0.4 -0.09c0.14 -0.05 0.23 -0.13 0.18 -0.18c-0.04 -0.03 -0.65 -0.23 -0.88 -0.34c-0.21 -0.09 -0.38 -0.21 -0.34 -0.31c0.03 -0.1 0.3 -0.2 0.63 -0.14c0.18 0.03 0.37 0.14 0.39 0.2c0.03 0.04 -0.23 -0.03 -0.48 -0.11c-0.23 -0.06 -0.55 -0.2 -0.61 -0.17c-0.05 0.03 -0.14 0.05 -0.13 0.1c0.01 0.03 0.25 0.19 0.73 0.36c0.52 0.18 1.07 0.32 1.22 0.25c0.12 -0.06 0.11 -0.6 -0.42 -0.84c-0.71 -0.31 -1.61 -0.24 -1.95 -0.03l0.01 -0.03z
           M25.1 31.11c0.15 0.03 0.35 0.09 0.39 0.07c0.04 -0.02 0.35 -0.38 0.71 -0.7c0.27 -0.22 1.1 -0.79 1.14 -0.86c0.01 -0.04 -0.25 -0.18 -0.5 -0.28c-0.3 -0.11 -0.43 -0.15 -0.55 -0.15c-0.1 0 -0.36 0.18 -0.85 0.61c-0.48 0.41 -0.81 1.02 -0.77 1.08c0.02 0.05 0.23 0.18 0.4 0.22l0.01 0.01z
           M26.03 31.67c0.14 0.03 0.31 0.07 0.36 0.04c0.04 -0.01 0.47 -0.46 0.75 -0.7c0.26 -0.22 0.81 -0.65 0.86 -0.72c0.02 -0.04 -0.2 -0.15 -0.45 -0.23c-0.27 -0.09 -0.46 -0.13 -0.52 -0.12c-0.11 0.01 -0.51 0.26 -0.9 0.69c-0.4 0.45 -0.46 0.84 -0.42 0.89c0.02 0.04 0.17 0.11 0.32 0.15z
           M27.79 30.92c-0.06 -0.03 -0.61 0 -0.9 0.27c-0.27 0.26 -0.1 0.65 0.32 0.89c0.51 0.25 1.15 0.26 1.59 0c0.44 -0.28 0.23 -0.68 0.05 -0.87c-0.23 -0.25 -0.76 -0.44 -0.85 -0.42c-0.07 0.01 -0.17 0.14 -0.21 0.26c-0.07 0.14 -0.06 0.25 -0.04 0.29c0.01 0.03 0.36 0.23 0.34 0.36c-0.02 0.17 -0.15 0.23 -0.3 0.23c-0.22 -0.01 -0.4 -0.18 -0.3 -0.3c0.1 -0.1 0.27 -0.1 0.31 -0.11c0.05 0 0.07 -0.25 0.07 -0.34c-0.01 -0.07 -0.01 -0.21 -0.07 -0.25l-0 -0.01z
           M29.45 31.5c-0.07 -0.02 -0.55 0.17 -0.79 0.43c-0.34 0.36 -0.21 0.61 -0.17 0.66c0.07 0.09 0.75 0.06 0.75 0.06c0 0 0.27 0.3 0.43 0.44c0.19 0.14 0.55 0.4 0.67 0.43c0.1 0 0.7 -0.34 0.96 -0.59c0.25 -0.25 0.32 -0.68 0.28 -0.75c-0.02 -0.03 -0.28 -0.15 -0.53 -0.21c-0.26 -0.06 -0.43 -0.1 -0.51 -0.07c-0.01 0 -0.22 0.43 -0.32 0.56c-0.07 0.09 -0.21 0.25 -0.22 0.23c-0.01 0 -0.01 -0.11 -0.03 -0.22c-0.01 -0.11 -0.1 -0.27 -0.16 -0.29c-0.06 -0.02 -0.16 0.02 -0.27 0.06c-0.05 0.02 -0.21 0.11 -0.22 0.1c-0.01 0 0.07 -0.11 0.16 -0.18c0.08 -0.06 0.31 -0.22 0.32 -0.25c0 -0.02 -0.03 -0.12 -0.09 -0.22c-0.06 -0.11 -0.12 -0.18 -0.21 -0.2h-0.02z
           M32.09 32.02c-0.08 0 -0.39 0.25 -0.63 0.61c-0.23 0.35 -0.55 1.13 -0.52 1.19c0.02 0.04 0.2 0.14 0.38 0.2c0.17 0.05 0.4 0.16 0.46 0.16c0.03 0 0.02 -0.29 0.17 -0.43c0.15 -0.13 0.4 -0.22 0.69 -0.09c0.22 0.11 0.25 0.4 0.19 0.47c-0.04 0.06 -0.3 0 -0.52 -0.09c-0.27 -0.13 -0.52 -0.4 -0.56 -0.43c-0.04 -0.01 -0.17 0.05 -0.21 0.09c-0.04 0.04 -0.07 0.13 -0.06 0.15c0.01 0.02 0.32 0.35 1 0.67c0.68 0.31 1.2 0.34 1.43 0.23c0.2 -0.11 0.26 -0.84 -0.3 -1.27c-0.91 -0.68 -1.39 -0.26 -1.48 -0.15c0 -0.09 0.07 -0.23 0.18 -0.45c0.11 -0.19 0.49 -0.73 0.49 -0.77c0 -0.04 -0.17 -0.11 -0.31 -0.11c-0.2 -0.01 -0.31 0 -0.38 0z
           M34.63 33.9c-0.09 0 -0.38 0.25 -0.56 0.54c-0.18 0.27 -0.48 0.52 -0.47 0.56c0 0.02 0.13 0.11 0.38 0.23c0.25 0.11 0.4 0.17 0.49 0.19c0.06 0 0.36 -0.36 0.46 -0.56c0.11 -0.18 0.3 -0.63 0.3 -0.68c0 -0.04 -0.15 -0.11 -0.28 -0.18c-0.11 -0.04 -0.2 -0.11 -0.3 -0.11h-0.01z
           M35.88 33.49c0.05 0.15 -0.46 0.54 -0.6 0.51c-0.13 -0.01 -0.38 -0.16 -0.44 -0.3c-0.05 -0.13 0.06 -0.59 0.32 -0.65c0.25 -0.04 0.65 0.27 0.72 0.44z
           M36.63 33.74c-0.11 0 -0.54 0.3 -0.9 0.65c-0.07 -0.03 -0.31 -0.11 -0.36 -0.1c-0.02 0 -0.18 0.1 -0.25 0.22c-0.06 0.11 -0.1 0.2 -0.1 0.25c0 0.02 0.2 0.11 0.27 0.14c-0.21 0.34 -0.32 0.66 -0.21 0.77c0.05 0.06 0.25 0.19 0.45 0.26c0.22 0.07 0.36 0.13 0.43 0.13c0.04 0 0.25 -0.36 0.47 -0.7c0.11 0.04 0.66 0.22 0.73 0.25c0.06 0.02 0.2 0.02 0.46 -0.07c0.28 -0.12 0.31 -0.18 0.3 -0.22c-0.02 -0.06 -0.95 -0.47 -1.07 -0.52c0.23 -0.29 0.5 -0.59 0.48 -0.63c0 -0.06 -0.09 -0.15 -0.26 -0.25c-0.2 -0.11 -0.32 -0.2 -0.46 -0.18h0.01z
           M36.75 35.72c-0.38 0.29 -0.1 0.72 0.26 0.99c0.57 0.38 1.32 0.52 1.45 0.5c0.07 0 0.21 -0.04 0.36 -0.13c0.11 -0.08 0.27 -0.2 0.2 -0.22c-0.05 -0.02 -1.09 -0.29 -1.31 -0.4c-0.2 -0.09 -0.38 -0.2 -0.34 -0.31c0.04 -0.09 0.31 -0.18 0.65 -0.15c0.18 0.02 0.38 0.13 0.41 0.18c0.03 0.04 -0.2 0 -0.46 -0.02c-0.26 -0.04 -0.65 -0.12 -0.72 -0.09c-0.04 0.02 -0.06 0.11 -0.06 0.14c0.01 0.04 0.26 0.11 0.79 0.22c0.61 0.14 1.08 0.25 1.22 0.15c0.13 -0.09 0.08 -0.7 -0.63 -0.95c-0.72 -0.25 -1.47 -0.15 -1.84 0.1l0 0z
           M40.77 36.36c-0.04 -0.04 -0.38 -0.15 -0.92 -0.13c-0.51 0.02 -0.78 0.27 -0.72 0.45c0.04 0.13 0.25 0.27 0.36 0.36c0.09 0.08 0.18 0.15 0.15 0.22c-0 0.04 -0.13 0.02 -0.25 -0.02c-0.18 -0.1 -0.34 -0.2 -0.41 -0.21c-0.06 -0 -0.15 0.09 -0.2 0.19c-0.06 0.13 -0.02 0.23 0 0.28c0.04 0.04 0.66 0.44 1.25 0.56c0.61 0.11 1.18 0.02 0.93 -0.43c-0.09 -0.15 -0.36 -0.36 -0.77 -0.63c-0.15 -0.09 -0.27 -0.2 -0.2 -0.22c0.09 -0.02 0.67 0.19 0.74 0.18c0.06 0 0.06 -0.22 0.07 -0.3c0.01 -0.08 0 -0.26 -0.02 -0.29z"
  />
  <path style="fill:#fffb3c"
        d="M20.07 26.53c0 0 -0.32 0.01 -0.79 0.29c0.19 -0.05 0.21 -0.06 0.28 0.04c0.25 -0.07 0.55 0.07 0.47 0.26c0.35 -0.01 0.53 0.4 0 0.55c0.37 0.1 -0.05 0.62 -0.46 0.42c-0.05 0.18 -0.38 0.2 -0.64 0.05c0.54 0.42 1.12 0.7 1.12 0.7c0 0 0.47 -0.11 1 -0.42c0.53 -0.28 0.94 -0.66 0.94 -0.66c0 0 -0.34 -0.33 -0.87 -0.71c-0.55 -0.37 -1.04 -0.56 -1.04 -0.56v0.02z"
  />
  <linearGradient id="gradient2" gradientUnits="userSpaceOnUse" x1="49.5" y1="49.47" x2="79.77" y2="36.5">
   <stop offset="0" stop-color="#ffffff"/>
   <stop offset="0.9959" stop-color="#ccccf5"/>
  </linearGradient>
  <path style="fill:url(#gradient2); fill-opacity:0.2352; fill-rule:evenodd"
        d="M35.61 45.63c0 -8.5 10.22 -15.4 22.84 -15.4c12.62 0 22.84 6.88 22.84 15.4c0 8.51 -10.22 15.4 -22.84 15.4c-12.61 0 -22.84 -6.89 -22.84 -15.4z
           M58.47 54c6.61 0 12 -3.8 12 -8.51c0 -4.71 -5.37 -8.52 -12 -8.52c-6.62 0 -12 3.8 -12 8.52c0 4.69 5.36 8.51 12 8.51z"
  />
  <path style="fill:none; stroke:#000000; stroke-width:2.0727"
        d="M46.93 45.63c0 -4.61 5.15 -8.36 11.52 -8.36c6.36 0 11.52 3.74 11.52 8.36c0 4.61 -5.16 8.36 -11.52 8.36c-6.36 0 -11.52 -3.74 -11.52 -8.36z"
  />
  <linearGradient id="gradient3" gradientUnits="userSpaceOnUse" x1="74.48" y1="60.13" x2="40.2" y2="60.72">
   <stop offset="0" stop-color="#ffffff"/>
   <stop offset="1" stop-color="#550101"/>
  </linearGradient>
  <path style="fill:url(#gradient3); fill-opacity:0.3921; fill-rule:evenodd"
        d="M34.56 45.63c0 9.06 10.72 16.44 23.9 16.44c13.16 0 23.9 -7.37 23.9 -16.44c0 -9.05 -10.72 -16.43 -23.9 -16.43c-13.17 0 -23.9 7.36 -23.9 16.43z
           M36.72 45.63c0 -7.86 9.75 -14.27 21.74 -14.27c11.97 0 21.72 6.39 21.72 14.27c0 7.86 -9.75 14.27 -21.72 14.27c-11.97 0 -21.74 -6.39 -21.74 -14.27z"
  />
 </g>
</svg>
