<?xml version="1.0" encoding="UTF-8" standalone="yes"?>
<svg width="128" height="119" color-interpolation="linearRGB">
 <g>
  <path style="fill:#000000"
        d="M2.84 69.68l38.9 46.1l79.78 -27.29l-55 -47.23l-63.68 28.42z"
  />
  <linearGradient id="gradient0" gradientUnits="userSpaceOnUse" x1="67.66" y1="26.33" x2="101.01" y2="81.23">
   <stop offset="0" stop-color="#fffed8"/>
   <stop offset="0.5139" stop-color="#fdfeed"/>
   <stop offset="1" stop-color="#e5d192"/>
  </linearGradient>
  <path style="fill:url(#gradient0)"
        d="M42.68 110.94l-33.32 -39.75l56.24 -25.07l49.42 40.89l-72.34 23.94z"
  />
  <path style="fill:#000000"
        d="M-0.4 71.57l73.76 39.16l46.4 -46.69l-73.75 -39.15l-46.41 46.68z"
  />
  <linearGradient id="gradient1" gradientUnits="userSpaceOnUse" x1="87.44" y1="47.9" x2="58.88" y2="105.43">
   <stop offset="0" stop-color="#fffed8"/>
   <stop offset="0.5139" stop-color="#fdfeed"/>
   <stop offset="1" stop-color="#e5d192"/>
  </linearGradient>
  <path style="fill:url(#gradient1)"
        d="M72.7 105.83l-66.52 -35.31l40.48 -40.73l66.52 35.31l-40.48 40.73z"
  />
  <path style="fill:#000000; fill-opacity:0.2"
        d="M3.35 72.84l53.29 34.81l-14.89 8.12l20.24 -4.78l14.28 6.9l13.09 -15.36l37.4 -12.28l-14.77 -11.25l12.91 -9.22l-10.62 -3.13l-9.01 10.3l10.28 7.16l-32.72 13.31l-10.13 8.41l-69.34 -32.98z"
  />
  <linearGradient id="gradient2" gradientUnits="userSpaceOnUse" x1="79.28" y1="67.46" x2="78.78" y2="82.66">
   <stop offset="0" stop-color="#eaddb0"/>
   <stop offset="1" stop-color="#d9c47c"/>
  </linearGradient>
  <path style="fill:url(#gradient2)"
        d="M47 73l19 -6l44 1l-12 12l-51 -7z"
  />
  <path style="fill:#000000; fill-opacity:0.2"
        d="M108.37 80.5l-10.3 10.64l-11.06 4.69l18.02 -19.35l3.34 4.01z"
  />
  <radialGradient id="gradient3" gradientUnits="userSpaceOnUse" cx="0" cy="0" r="200" gradientTransform="matrix(0.2516,-0.2578,0.0471,0.0481,84.6033,31.3762)">
   <stop offset="0.372" stop-color="#ea6706"/>
   <stop offset="1" stop-color="#f6911b"/>
  </radialGradient>
  <path style="fill:url(#gradient3)"
        d="M63.61 56.93c2.52 2.52 6.02 3.19 6.02 3.19c10.6 -6.21 20.8 -11.6 45.71 -50.1c4.02 -6.21 1.86 -7.71 1.86 -7.71c0 0 -1.13 -1.79 -7.35 2.22c-38.5 24.91 -43.88 35.11 -50.1 45.71c0 0 1.43 4.26 3.84 6.67z"
  />
  <radialGradient id="gradient4" gradientUnits="userSpaceOnUse" cx="0" cy="0" r="200" gradientTransform="matrix(0.2758,-0.2607,0.0219,0.0187,82.7343,32.8886)">
   <stop offset="0.279" stop-color="#ffad4d"/>
   <stop offset="0.8106" stop-color="#ea6706"/>
  </radialGradient>
  <path style="fill:url(#gradient4)"
        d="M64.99 48.9c0.25 0.85 0.52 1.38 0.64 1.53c0.07 0.06 0.44 0.2 0.93 0.34c8.36 -4.92 29.32 -21.25 46.81 -46.69c-25.36 17.43 -43.51 36.51 -48.4 44.81z"
  />
  <path style="fill:#ffe5c6"
        d="M64.99 48.9c0.25 0.85 0.52 1.38 0.64 1.53c0.07 0.06 0.44 0.2 0.93 0.34c6.27 -6.62 24.12 -22.5 46.09 -46.2c-25.12 21.51 -41.76 36.66 -47.67 44.33z"
  />
  <linearGradient id="gradient5" gradientUnits="userSpaceOnUse" x1="69.96" y1="36.9" x2="82.2" y2="50.32">
   <stop offset="0" stop-color="#7e7e7e"/>
   <stop offset="1" stop-color="#dedede"/>
   <stop offset="0.6578" stop-color="#9c9c9c"/>
  </linearGradient>
  <path style="fill:url(#gradient5)"
        d="M63.59 56.93c2.52 2.52 6.04 3.19 6.04 3.19c3.03 -1.77 6.03 -3.48 9.35 -5.92c-3.47 -1.56 -11.97 -9.33 -13.58 -12.91c-2.28 3.16 -3.93 6.05 -5.63 8.96c0 0 1.42 4.27 3.82 6.67z"
  />
  <path style="fill:#e6e6e6"
        d="M68.58 48.82c1.08 0.78 6.22 3.27 6.45 3.06c-0.35 -0.25 -3.15 -2.52 -5.41 -4.76c-2 -1.98 -3.53 -3.96 -3.53 -3.96c0 0 0.28 1.78 0.99 2.92c-0.61 0.51 -3.52 4.17 -5.11 6.33c0.25 0.85 0.9 1.8 1.25 2.17c1.49 -1.58 2.77 -3.02 5.36 -5.76z"
  />
  <path style="fill:#ffffff"
        d="M67.15 45.09c0.15 -0.06 0.75 0.68 1.5 1.5c0.61 0.66 2.06 1.93 1.93 2.18c-0.12 0.25 -2.73 -0.64 -3.12 -1.18c-0.5 -0.68 -0.46 -2.43 -0.31 -2.5z"
  />
  <path style="fill:none; stroke:#000000; stroke-width:2.5"
        d="M59.76 50.26c6.21 -10.6 11.59 -20.8 50.1 -45.71c6.21 -4.02 7.35 -2.22 7.35 -2.22c0 0 2.15 1.49 -1.86 7.71c-24.91 38.5 -35.11 43.89 -45.71 50.1c0 0 -3.5 -0.66 -6.02 -3.19c-2.4 -2.4 -3.84 -6.67 -3.84 -6.67z"
  />
  <radialGradient id="gradient6" gradientUnits="userSpaceOnUse" cx="0" cy="0" r="200" gradientTransform="matrix(0.0672,0,-0,0.0672,39.2351,57.457)">
   <stop offset="0" stop-color="#ffa9a9"/>
   <stop offset="1" stop-color="#ff4545"/>
  </radialGradient>
  <path style="fill:url(#gradient6)"
        d="M39.8 55.26c-4.38 1.46 -12.97 9.89 -13.33 14.61c-0.19 2.52 1.64 6.57 10.4 5.84c8.76 -0.73 14.58 -3.92 16.04 -5.02c1.45 -1.09 -7.04 0.39 -10.59 0.6c-3.75 0.22 -7.27 -2.15 -7.27 -3.61c0 -4.19 3.51 -7.67 5.84 -9.13c2.92 -1.82 0.72 -4.02 -1.09 -3.28z"
  />
  <radialGradient id="gradient7" gradientUnits="userSpaceOnUse" cx="0" cy="0" r="200" gradientTransform="matrix(0.0642,0,-0,0.0727,56.0899,58.4039)">
   <stop offset="0" stop-color="#ff6a6a"/>
   <stop offset="0.3355" stop-color="#eb1813"/>
   <stop offset="0.7674" stop-color="#c50a05"/>
   <stop offset="1" stop-color="#ef1106"/>
  </radialGradient>
  <path style="fill:url(#gradient7)"
        d="M60.41 50.65c-4.71 -0.56 -8.48 1.31 -8.67 11.68c-0.18 10.37 -3.2 9.23 -3.95 9.23c2.45 0.75 22.43 2.26 21.68 -12.63c-1.88 -1.13 -9.23 -6.78 -9.05 -8.29z"
  />
  <path style="fill:#000000"
        d="M54.17 51.2c-2.21 1.92 -3.33 5.56 -3.43 11.12c-0.1 5.77 -1.04 7.57 -1.67 8.03c-1.24 0.89 -3.36 0.54 -3.45 1.04c-0.09 0.49 1.39 0.98 1.88 1.13c1.81 0.56 12.46 1.49 18.58 -3.26c3.13 -2.44 4.61 -5.93 4.39 -10.37c-0.01 -0.33 -0.16 -0.72 -0.48 -0.8c-3.47 -0.87 -7.07 -4.44 -8.22 -7c-0.16 -0.37 -0.72 -1.36 -1.21 -1.42c-2.71 -0.32 -4.79 0.17 -6.35 1.53z
           M52.73 62.36c0.08 -4.89 1.01 -8.14 2.75 -9.65c1.01 -0.88 3.03 -1.2 4.86 -1.07c1.08 3.95 4.26 6.23 8.12 8.11c0 3.39 -1.22 6.06 -3.64 7.94c-3.91 3.04 -10.08 3.47 -13.81 3.29c1.05 -1.59 1.63 -4.38 1.71 -8.62z"
  />
 </g>
</svg>
